/* XPM */
static char *sshstart[] = {
/* columns rows colors chars-per-pixel */
"32 32 120 2",
"   c #000000",
".  c #080600",
"X  c #0D0A00",
"o  c #0A0A0A",
"O  c #100D00",
"+  c #141101",
"@  c #15120A",
"#  c #1B1501",
"$  c #181709",
"%  c #1E1800",
"&  c #1C1909",
"*  c #151515",
"=  c #1B1A10",
"-  c #1B1B1B",
";  c #221D04",
":  c #221D15",
">  c #2B2300",
",  c #3C2F00",
"<  c #302719",
"1  c #232323",
"2  c #2F2C26",
"3  c #2A2A2A",
"4  c #333333",
"5  c #3B3B3B",
"6  c #433504",
"7  c #4E3B00",
"8  c #604801",
"9  c #795B01",
"0  c #75620C",
"q  c #7D6503",
"w  c #78623E",
"e  c #434343",
"r  c #4C4842",
"t  c #4B4B4B",
"y  c #514E49",
"u  c gray33",
"i  c #5C5C5C",
"p  c #65625D",
"a  c #626262",
"s  c #6C6C6C",
"d  c #717171",
"f  c #7D7D7D",
"g  c #816600",
"h  c #907100",
"j  c #9B7500",
"k  c #997B02",
"l  c #936F34",
"z  c #9B763A",
"x  c #9C783D",
"c  c #A87E00",
"v  c #A27E42",
"b  c #B68A04",
"n  c #BE8F0C",
"m  c #A58046",
"M  c #AA874B",
"N  c #AD894F",
"B  c #B39154",
"V  c #B69358",
"C  c #B49F57",
"Z  c #B49F58",
"A  c #BE9B5B",
"S  c #B6A158",
"D  c #C59502",
"F  c #C3930B",
"G  c #C59804",
"H  c #CC9A01",
"J  c #CA9A0A",
"K  c #D09E02",
"L  c #D5A201",
"P  c #D3A209",
"I  c #D2A802",
"U  c #D9A501",
"Y  c #DDAA01",
"T  c #DCA908",
"R  c #E1AB00",
"E  c #E2B402",
"W  c #E5B708",
"Q  c #E7B803",
"!  c #EABA00",
"~  c #C09D5E",
"^  c #CBAA5B",
"/  c #DCB75A",
"(  c #CCA760",
")  c #ECC401",
"_  c #EAC519",
"`  c #F2C402",
"'  c #F3C900",
"]  c #F5CE1A",
"[  c #F4D200",
"{  c #F8D602",
"}  c #FCD901",
"|  c #DDC36D",
" . c #E2C958",
".. c #ECD15D",
"X. c #FBE346",
"o. c #FBED5A",
"O. c #FFF15B",
"+. c #838383",
"@. c #8C8C8C",
"#. c #93908B",
"$. c #939393",
"%. c #9B9B9B",
"&. c #A3A3A3",
"*. c #ABABAB",
"=. c #B1AEA9",
"-. c #B4B4B4",
";. c #BCBCBC",
":. c #EFE48E",
">. c #FBFA96",
",. c #C2C2C2",
"<. c #CFCCC7",
"1. c #CCCCCC",
"2. c #D5D2CD",
"3. c #D2D2D2",
"4. c #DCD9D4",
"5. c #DCDCDC",
"6. c #E3E3E3",
"7. c #EAEAEA",
"8. c gray100",
"9. c None",
/* pixels */
"9.9.9.9.9.4 4 5 e i f @.%.%.&.%.$.@.+.f a e 5 4 4 4 4 9.9.9.9.9.",
"9.9.9.  t t t @.,.1.1.3.1.3.3.1.,.;.-.-.-.*.*.@.a 5 4 9.9.9.9.9.",
"9.9.  t e u ,.1.3.3.3.3.3.3.1.-.-.-.*.*.;.-.&.*.$.5 4 9.9.9.9.9.",
"9.  4 3 t 1.1.1.3.3.3.3.3.,.-.-.*.;.1.1.-.;.1.6.;.a 3 9.9.9.9.9.",
"9.1 1 4 %.1.1.1.1.3.1.1.,.;.-.-.,.-.&.&.*.*.&.%.&.5.*.  9.9.9.9.",
"  o 3 e ,.1.1.1.1.1.1.,.-.*.*.,.&.*.%.f +.@.+.$.&.+.1.&.  9.9.9.",
"  o 4 i 1.1.1.1.1.1.,.&.i s ;.*.&.s 5 i $.*.,.*.f &.*.1.@.9.9.9.",
"    4 d ,.,.,.1.,.,.-.i 4 &.;.%.$.1 4 4 4 e e d s @.@.1.*.  9.9.",
"    4 d ,.,.,.,.,.*.&.u 3 &.;.%.4         o 1 5 5 i $.,.*.  9.9.",
"    4 u ;.,.,.,.-.-.-.*.@.-.*.@.e 5 3 3 - o   4 4 5 $.,.;.  9.9.",
"    4 e ;.,.,.;.-.-.-.-.*.;.&.@.%.$.+.a t 5 4 4 9.4 $.*.;.  9.9.",
"    4 5 &.;.;.-.;.-.;.-.*.;.&.$.;.,.,.,.*.%.i e 4 5 %.*.,.  9.9.",
"      4 i -.;.-.-.-.-.-.*.;.&.%.-.,.;.,.,.,.,.@.t 4 &.*.,.  9.9.",
"      4 5 f -.;.;.;.;.;.*.;.&.&.*.,.;.;.;.,.;.1.&.t *.*.;.  9.9.",
"        4 5 d *.;.,.;.;.-.;.*.*.*.-.-.-.-.-.-.,.,.d *.*.,.    9.",
"9.        4 4 t s %.=. .../ ( A V N m x l l x v N V A ^ | :.S   ",
"9.9.*         4 4 5 t  .X.] ' ! Y K J n n F J J T W ` } O.>.Z   ",
"9.9.4 4 1 o         :  .X.& q U T K J G J J J T T W ) } O.>.Z   ",
"9.  4 t u e 3 1 o   <  .X.X . X , j G D H K L U T Q ) { o.>.Z   ",
"  t e u -.%.s u t e r  .X.6 X .   O O 8 b K P U Y Q ' } O.>.Z   ",
"  o 3 t 1.1.3.1.*.@.p  .X.] E g % O .   X 9 K L U W ) { O.>.Z   ",
"    4 e 1.5.5.5.5.5.<. .X.] ) ! G 6       8 L U R ! ' } O.>.Z   ",
"    4 e 1.5.5.5.6.6.<. .X._ k > O     X % j L Y Y Q ) } O.>.Z   ",
"    4 e 1.5.6.6.6.7.2. .X.X X   X X 7 c H L U U R Q ' } o.>.Z   ",
"    4 e 3.6.6.6.7.7.4. .X.. + > h H H D H K U U Y Q ` } o.>.C   ",
"    4 5 d %.;.5.7.7.4. .X.0 I ! R U H H H K U R R ! ' } O.>.C   ",
"    - 3 4 4 5 5 u +.#. .X.] ` ! R L H H H L H L L E ) [ o.>.C   ",
"            o * - - 2  .X.] ` ! E U K H H D . O O O O O + >.C   ",
"9.    9.9.9.9.9.9.9.w  .X.] ` ! Y U H D H D . O X X O + @ >.C   ",
"9.9.9.9.9.9.9.9.9.9.w  .X.] ` ! Y U H H H K H L U E ) [ o.>.C   ",
"9.9.9.9.9.9.9.9.9.9.w  .X.] ' ! Y U L D H L U R R ! ' } O.>.Z   ",
"9.9.9.9.9.9.9.9.9.9.  & & % # + O O O O O X X O O O + + $ & @   "
};
