/* XPM */
static char *sshstart[] = {
/* columns rows colors chars-per-pixel */
"32 32 174 2 ",
"   c gray9",
".  c #1E1E1E",
"X  c gray16",
"o  c gray17",
"O  c #2F2F2F",
"+  c gray19",
"@  c #343434",
"#  c #353535",
"$  c #444444",
"%  c gray28",
"&  c gray29",
"*  c #4E4E4E",
"=  c gray31",
"-  c #515151",
";  c gray32",
":  c #535353",
">  c gray33",
",  c #555555",
"<  c #565656",
"1  c gray34",
"2  c gray35",
"3  c #5B5B5B",
"4  c gray36",
"5  c #5D5D5D",
"6  c gray37",
"7  c #5F5F5F",
"8  c #606060",
"9  c gray38",
"0  c #626262",
"q  c gray39",
"w  c #646464",
"e  c #656565",
"r  c gray40",
"t  c #686868",
"y  c DimGray",
"u  c gray42",
"i  c #6D6D6D",
"p  c gray43",
"a  c #6F6F6F",
"s  c gray44",
"d  c #717171",
"f  c #727272",
"g  c #747474",
"h  c gray46",
"j  c #767676",
"k  c #7B7B7B",
"l  c gray49",
"z  c #7E7E7E",
"x  c gray50",
"c  c #808080",
"v  c #818181",
"b  c gray51",
"n  c #838383",
"m  c #848484",
"M  c #858685",
"N  c #868686",
"B  c gray53",
"V  c #8B8B8B",
"C  c gray55",
"Z  c #909090",
"A  c gray57",
"S  c #929292",
"D  c gray58",
"F  c #979797",
"G  c gray60",
"H  c #9A9A9A",
"J  c #9B9B9B",
"K  c #9C9D9B",
"L  c #9D9D9D",
"P  c #9D9E9D",
"I  c gray62",
"U  c #9F9F9F",
"Y  c #A0A0A0",
"T  c #A2A2A2",
"R  c #A5A5A5",
"E  c #A7A7A7",
"W  c #A9A9A9",
"Q  c #AAAAAA",
"!  c gray67",
"~  c #AFAFAF",
"^  c #B0B1AF",
"/  c #B2B2B2",
"(  c gray70",
")  c #B4B4B4",
"_  c gray71",
"`  c #B5B6B5",
"'  c #B6B6B6",
"]  c #B7B7B6",
"[  c #B7B7B7",
"{  c gray72",
"}  c #B9B9B9",
"|  c #BCBCBC",
" . c gray74",
".. c gray",
"X. c gray75",
"o. c #BFC0BF",
"O. c #C0C0C0",
"+. c #C1C1C1",
"@. c gray76",
"#. c #C3C3C3",
"$. c gray77",
"%. c #C5C5C5",
"&. c #C6C6C6",
"*. c #C6C7C6",
"=. c gray78",
"-. c #C8C8C8",
";. c #C8C9C8",
":. c gray79",
">. c #CACACA",
",. c #CBCBCB",
"<. c gray80",
"1. c #CDCDCD",
"2. c #CECECE",
"3. c #CECFCE",
"4. c gray81",
"5. c #D0D0D0",
"6. c gray82",
"7. c #D2D2D2",
"8. c LightGray",
"9. c gray83",
"0. c #D5D5D5",
"q. c gray84",
"w. c #D7D7D7",
"e. c #D6D8D6",
"r. c #D7D8D7",
"t. c #D8D8D8",
"y. c gray85",
"u. c #DADADA",
"i. c #DADBDA",
"p. c gray86",
"a. c gainsboro",
"s. c #DCDDDC",
"d. c #DDDDDD",
"f. c #DDDEDD",
"g. c gray87",
"h. c #DFDFDF",
"j. c gray88",
"k. c #E0E1E0",
"l. c #E1E1E1",
"z. c #E1E2E1",
"x. c #E2E2E2",
"c. c gray89",
"v. c #E4E4E4",
"b. c gray90",
"n. c #E6E6E6",
"m. c #E7E7E7",
"M. c gray91",
"N. c #E9E9E9",
"B. c #EAEAEA",
"V. c gray92",
"C. c #ECECEC",
"Z. c #ECEDEC",
"A. c gray93",
"S. c #EEEEEE",
"D. c #EFEFEF",
"F. c gray94",
"G. c #F0F1F0",
"H. c #F1F1F1",
"J. c #F1F2F1",
"K. c gray95",
"L. c #F2F3F2",
"P. c #F3F3F3",
"I. c #F4F4F4",
"U. c gray96",
"Y. c #F6F6F6",
"T. c gray97",
"R. c #F8F8F8",
"E. c gray98",
"W. c #FBFBFB",
"Q. c gray99",
"!. c #FDFDFD",
"~. c #FEFEFE",
"^. c gray100",
"/. c None",
/* pixels */
"/./././././././././././././././././././././././././.Z.I.t.N././.",
"/./././././././././././././././././././././././.q.P.!.<.P.Q.g./.",
"/././././././././././././././././././././././.9.K.T.<.K.E.n.c./.",
"/./././././././././././././././././././././.<.I.P.>.K.I.c.Z.N./.",
"/././././././././././././././././././././.] I.K.*.Z.I.h.N.I.Z./.",
"/././././././././././././././././././././.w.Z.*.C.K.g.N.K.I.Z./.",
"/./././././././././././././././././././.c.N.#.V.Z.a.N.K.I.I.g./.",
"/./././././././././././././././././.<.K.n.+.N.Z.t.m.K.I.I.Z.b /.",
"/./././././././././././././././.q.:.Z.b.O.m.m.t.n.F.K.K.Z.M /./.",
"/./././././././././././././././.O.I.h.| b.m.0.b.Z.F.K.N.m /././.",
"/./././././././././././././././.g.g.} b.b.7.b.Z.F.F.C.m /./././.",
"/././././././././././././.] ..n.t.} c.h.2.b.C.Z.F.N.m /././././.",
"/./././././.g.c.c.c.g.c.t.M v.e.] k.g.<.c.C.Z.Z.N.M /./././././.",
"/././././.c.t.q.t.g.g.g.t.t.L K g.a.>.c.N.N.C.m.b /././././././.",
"/././.t.g.8.g.c.n.n.c.c.N.c.c.q./ +.c.n.N.C.n.b /./././././././.",
"/././.q.8.c.c.c.c.c.n.n.N.n.n.c.>.g.n.n.O.W c x x b /./././././.",
"/./.8.8.8.q.q.p.h.b.c.b.n.m.m.m.c.q.<.C h f h x h f h x /./././.",
"/./.4.<.W x W <.t.h.b.b.m.n.b.m.n.W h u L g.n.n.c.q.F u h /././.",
"/.L >.] a - q W 8.h.c.b.n.h.h.n.>.s f q.K.I.I.E.I.K.n.*.a f /./.",
"/.R >.T /././.@ 0.h.b.b.h.h.b.b.x e q.K.E.t.T.!.!.!.I.Z.+.q a /.",
"/./ >..././././.0.h.b.h.h.c.N./ q U K.E.!.] B 8.!.!.!.I.n.A e /.",
"/./ *.<.h./.w.q.w.c.g.c.b.m.C.D 5 c.E.!.!.W t 3 F I.!.!.K.8.5 t ",
"/.L :.<.<.a.q.t.h.a.h.c.m.C.Z.g t c.I.!.!.T 1 % & e 8.!.I.g.e e ",
"/.k >.8.t.a.a.h.a.b.h.m.m.C.V.7 h v.T.!.!.b X . + $ 5 >.I.c.f 5 ",
"/./.t.2.q.g.g.t.h.h.n.N.N.Z.C.s e c.I.!.!.k .   X < <.!.I.c.5 5 ",
"/./.U t.8.t.g.g.a.n.m.N.C.C.C.C < a.K.!.!.M @ + x K.!.!.K.q.< 5 ",
"/././.<.h.q.t.c.c.n.m.N.N.N.Z.W : G N.T.!.A 3 +.!.!.!.I.n.A : /.",
"/././.< 8.n.h.t.g.c.n.n.N.K.b.G < : <.Z.I.>.K.!.!.!.E.N.+.: < /.",
"/././././.T t.N.N.F.F.C.m.*.M /./.: e >.N.K.I.I.I.K.n.*.q < /./.",
"/./././././.q A R ] ) L b 5 /././.< : : G t.c.c.c.t.A = : /././.",
"/././././././././././././././././././.: = = 5 t 3 = = < /./././.",
"/././././././././././././././././././././.< : : : : /./././././."
};
