/* XPM */
static char *sshstart-16[] = {
/* columns rows colors chars-per-pixel */
"16 16 165 2",
"   c black",
".  c gray2",
"X  c #060606",
"o  c #0A0800",
"O  c gray5",
"+  c #0E0E0E",
"@  c #100D00",
"#  c #110E00",
"$  c #101010",
"%  c gray8",
"&  c #161616",
"*  c gray11",
"=  c #1E1E1E",
"-  c #342701",
";  c #342800",
":  c #352A00",
">  c #382A00",
",  c #3E3000",
"<  c gray15",
"1  c #272727",
"2  c gray16",
"3  c #313131",
"4  c #323232",
"5  c gray20",
"6  c #373737",
"7  c #3A3A3A",
"8  c gray24",
"9  c #3E3E3E",
"0  c #564100",
"q  c #584400",
"w  c #5B4500",
"e  c #5D4800",
"r  c #56401E",
"t  c #5F5000",
"y  c #675200",
"u  c #655500",
"i  c #745701",
"p  c #6C5126",
"a  c #715427",
"s  c #735E3C",
"d  c #7B6B16",
"f  c gray25",
"g  c #414141",
"h  c #434343",
"j  c #444444",
"k  c gray27",
"l  c #464646",
"z  c #484848",
"x  c #4C4C4C",
"c  c #505050",
"v  c #555555",
"b  c gray34",
"n  c #5B5B5B",
"m  c #766344",
"M  c #7B6645",
"N  c #676767",
"B  c gray42",
"V  c #727272",
"C  c #8E6B00",
"Z  c #897719",
"A  c #916D00",
"S  c #947000",
"D  c #9B7500",
"F  c #9B7700",
"G  c #A27C00",
"H  c #8F754A",
"J  c #817053",
"K  c #AB8900",
"L  c #AF9400",
"P  c #AD961F",
"I  c #B09920",
"U  c #BDA422",
"Y  c #9B896D",
"T  c #A28341",
"R  c #AA8B49",
"E  c #AC8D4A",
"W  c #B3954F",
"Q  c #B79852",
"!  c #AB997D",
"~  c #B3B061",
"^  c #B5B262",
"/  c #B6B362",
"(  c #C69800",
")  c #C89604",
"_  c #CA9807",
"`  c #CE9B00",
"'  c #CF9C00",
"]  c #D29E00",
"[  c #CDA300",
"{  c #D6A109",
"}  c #DAA501",
"|  c #DBA600",
" . c #D8A604",
".. c #DBA900",
"X. c #E4AF05",
"o. c #E5B000",
"O. c #E5B003",
"+. c #C7AA5C",
"@. c #CAB05F",
"#. c #D1BE6C",
"$. c #F2C100",
"%. c #F6D100",
"&. c #F8D100",
"*. c #F8D103",
"=. c #F9D82D",
"-. c #808080",
";. c #818181",
":. c gray51",
">. c #848484",
",. c gray52",
"<. c #888888",
"1. c gray54",
"2. c #909090",
"3. c gray57",
"4. c #929292",
"5. c #939393",
"6. c #979797",
"7. c gray60",
"8. c #9A9A9A",
"9. c #9B9B9B",
"0. c gray62",
"q. c #AE9C80",
"w. c #ADA496",
"e. c #A0A0A0",
"r. c gray63",
"t. c #A2A2A2",
"y. c #A4A4A4",
"u. c #A5A5A5",
"i. c #A7A7A7",
"p. c gray66",
"a. c gray67",
"s. c #ACACAC",
"d. c gray68",
"f. c #AFAFAF",
"g. c gray69",
"h. c gray70",
"j. c gray71",
"k. c #B6B6B6",
"l. c #B7B7B7",
"z. c gray72",
"x. c #B9B9B9",
"c. c gray73",
"v. c #BBBBBB",
"b. c gray74",
"n. c #D3CB8C",
"m. c #FFFB8A",
"M. c #C0C0C0",
"N. c gray76",
"B. c gray77",
"V. c #C8C8C8",
"C. c #CBCBCB",
"Z. c gray80",
"A. c #CDCDCD",
"S. c #CECECE",
"D. c gray81",
"F. c #D0D0D0",
"G. c #D2D2D2",
"H. c LightGray",
"J. c gray83",
"K. c #D8D8D8",
"L. c #DDDDDD",
"P. c #E1E1E1",
"I. c #E7E7E7",
"U. c gray100",
"Y. c None",
/* pixels */
"Y.Y.h c 2.a.k.v.g.0.2.V h 4 Y.Y.",
"Y.4 N C.F.F.D.b.a.v.v.v.;.4 Y.Y.",
"% 6 N.D.D.C.v.a.g.8.6.2.y.y.Y.Y.",
"X l B.C.C.g.B g.2.x ;.2.,.a.0.Y.",
"  x N.B.k.0.<.y.x & $ 2 b a.8.Y.",
"  9 v.v.k.k.a.6.g.0.,.h 9 0.0.Y.",
"  1 ;.k.v.k.a.8.N.N.N.k.n a.0.Y.",
"    7 B a.w.#.+.Q R T E W @.n.a ",
"Y.1 + X = m U [  .) _ { X.%.m.p ",
"l l <.b 9 M d # ; i ) | X.%.m.p ",
"X 9 D.H.N.Y =.[ > o : | O.%.m.p ",
"  7 H.L.P.! P : # > C | O.%.m.p ",
"  7 k.K.I.! Z y ( ' ' | O.%.m.p ",
"  + = 2 l J =.$...' ' w e u / p ",
"Y.Y.Y.Y.Y.H =.$...` ' 0 0 u ~ p ",
"Y.Y.Y.Y.Y.s I K D A S D G L ~ r "
};
