/* XPM */
static char *sshstart___[] = {
/* columns rows colors chars-per-pixel */
"16 16 97 2",
"   c gray14",
".  c gray25",
"X  c gray30",
"o  c #4E4E4E",
"O  c gray33",
"+  c #555555",
"@  c gray35",
"#  c #5B5B5B",
"$  c gray36",
"%  c gray37",
"&  c gray38",
"*  c #626262",
"=  c gray39",
"-  c #676767",
";  c #686868",
":  c DimGray",
">  c gray42",
",  c gray44",
"<  c #767676",
"1  c #797979",
"2  c #7F7F7F",
"3  c #818181",
"4  c gray51",
"5  c #868686",
"6  c #898989",
"7  c gray55",
"8  c #929292",
"9  c #959595",
"0  c #979797",
"q  c #9B9B9B",
"w  c #A2A2A2",
"e  c #A4A4A4",
"r  c #A5A5A5",
"t  c gray67",
"y  c gray68",
"u  c #AFB0AF",
"i  c #B1B1B1",
"p  c #B2B2B2",
"a  c gray70",
"s  c #B7B7B7",
"d  c #B9B9B9",
"f  c #BBBBBB",
"g  c #BCBCBC",
"h  c gray",
"j  c gray75",
"k  c gray76",
"l  c #C2C3C2",
"z  c gray77",
"x  c gray78",
"c  c #C8C8C8",
"v  c gray79",
"b  c #C9CAC9",
"n  c #CACAC9",
"m  c #CBCBCB",
"M  c gray80",
"N  c #CDCDCD",
"B  c #CECECE",
"V  c gray81",
"C  c #D0D0D0",
"Z  c LightGray",
"A  c gray84",
"S  c #D7D7D7",
"D  c #D8D8D8",
"F  c gray85",
"G  c #DADADA",
"H  c gray86",
"J  c #DBDCDB",
"K  c gainsboro",
"L  c #DDDDDD",
"P  c gray87",
"I  c #DFDFDF",
"U  c gray88",
"Y  c #E0E1E0",
"T  c #E1E1E1",
"R  c #E2E2E2",
"E  c #E2E3E2",
"W  c gray89",
"Q  c #E4E4E4",
"!  c gray90",
"~  c #E6E6E6",
"^  c #E7E7E7",
"/  c gray91",
"(  c #E9E9E9",
")  c gray92",
"_  c #ECECEC",
"`  c gray93",
"'  c #EEEEEE",
"]  c #EFEFEF",
"[  c gray94",
"{  c #F1F1F1",
"}  c gray95",
"|  c #F3F3F3",
" . c gray98",
".. c #FBFBFB",
"X. c #FDFDFD",
"o. c gray100",
"O. c None",
/* pixels */
"O.O.O.O.O.O.O.O.O.O.O.O.F ' T O.",
"O.O.O.O.O.O.O.O.O.O.O.V | ! ! h ",
"O.O.O.O.O.O.O.O.O.O.O.] K T | j ",
"O.O.O.O.O.O.O.O.O.n ! J T | | 8 ",
"O.O.O.O.O.O.O.O.l W F K ' | e O.",
"O.O.O.O.O.O.O.n K C F / ' r O.O.",
"O.O.O.N K K z i V A / ' w O.O.O.",
"O.f F T T ! ! K n ! C 9 O.O.O.O.",
"O.M i z K Q ^ ^ N 8 3 0 6 1 O.O.",
"3 s o & F ! T ! 7 t A ' | F < O.",
"5 x O.h K I T n 3 T S q ! X.S > ",
", N F F K T / y 7 ' Z O   f  .; ",
"O.N F K T ! ' s 3 ' n   < | X.& ",
"O.2 K K T ^ ) N & I A z X.X.i @ ",
"O.O.$ n K F a o O.; F X.X.i $ O.",
"O.O.O.O.O.O.O.O.O.O.O $ @ O O.O."
};
