/* XPM */
static char *sshstart___[] = {
/* columns rows colors chars-per-pixel */
"16 16 100 2",
"   c #232323",
".  c #343434",
"X  c gray28",
"o  c gray30",
"O  c #535353",
"+  c #565656",
"@  c #585858",
"#  c #5A5A5A",
"$  c #5B5B5B",
"%  c #5D5D5D",
"&  c #606060",
"*  c #626262",
"=  c #676767",
"-  c #6A6A6A",
";  c #6C6C6C",
":  c #6F6F6F",
">  c gray46",
",  c #767676",
"<  c #797979",
"1  c #7E7E7E",
"2  c #808080",
"3  c #818181",
"4  c #848484",
"5  c #888888",
"6  c #8B8B8B",
"7  c gray55",
"8  c gray56",
"9  c #909090",
"0  c #929292",
"q  c #959595",
"w  c #979797",
"e  c #989898",
"r  c #9A9A9A",
"t  c gray63",
"y  c #A2A2A2",
"u  c #A4A4A4",
"i  c #AEAEAE",
"p  c #AFB0AF",
"a  c #B2B2B2",
"s  c #B7B7B7",
"d  c gray73",
"f  c gray74",
"g  c gray",
"h  c gray75",
"j  c #BFC0BF",
"k  c #C0C0C0",
"l  c gray76",
"z  c #C3C3C3",
"x  c gray78",
"c  c #C7C8C7",
"v  c #C8C8C8",
"b  c gray79",
"n  c #CACACA",
"m  c #CBCBCB",
"M  c gray80",
"N  c #CDCDCD",
"B  c #CECECE",
"V  c gray81",
"C  c #D0D0D0",
"Z  c gray82",
"A  c #D2D2D2",
"S  c LightGray",
"D  c gray84",
"F  c #D7D7D7",
"G  c #D8D8D8",
"H  c gray85",
"J  c #DADADA",
"K  c gray86",
"L  c gainsboro",
"P  c #DCDDDC",
"I  c #DDDDDD",
"U  c gray87",
"Y  c #DFDFDF",
"T  c gray88",
"R  c #E2E2E2",
"E  c gray89",
"W  c #E4E4E4",
"Q  c gray90",
"!  c #E6E6E6",
"~  c #E7E7E7",
"^  c gray91",
"/  c #E9E9E9",
"(  c #EAEAEA",
")  c gray92",
"_  c #ECECEC",
"`  c gray93",
"'  c #EEEEEE",
"]  c #EFEFEF",
"[  c #EFF0EF",
"{  c gray94",
"}  c gray95",
"|  c #F3F3F3",
" . c #F4F4F4",
".. c gray97",
"X. c #F9F9F9",
"o. c #FBFBFB",
"O. c gray99",
"+. c #FDFDFD",
"@. c gray100",
"#. c None",
/* pixels */
"#.#.#.#.#.#.#.#.#.#.#.#.Y { R #.",
"#.#.#.#.#.#.#.#.#.#.#.C  .W / f ",
"#.#.#.#.#.#.#.#.#.#.#.[ R W { k ",
"#.#.#.#.#.#.#.#.#.N W K Y { { 9 ",
"#.#.#.#.#.#.#.#.z E F K ` { u #.",
"#.#.#.#.#.#.#.c K A J _ ` y #.#.",
"#.#.#.C I I k a C F / _ y #.#.#.",
"#.f J R W W W I c W C q #.#.#.#.",
"#.N a v Y E ~ / M 9 3 y 9 < #.#.",
"4 d + : J E R W 7 k [ o.+.W , #.",
"6 v #.f J Y W v 3 X.J 5 W +.C ; ",
", N J J I R / i r +.v . X f ` = ",
"#.C J I R ~ _ s 7 X.k   3 { / & ",
"#.1 I I R W _ N & / F v +.X.w $ ",
"#.#.O k J F a o #.; C { / e $ #.",
"#.#.#.#.#.#.#.#.#.#.+ $ $ + #.#."
};
