/* XPM */
static char *sshstart[] = {
/* columns rows colors chars-per-pixel */
"32 32 119 2",
"   c #000000",
".  c #080600",
"X  c #0D0A00",
"o  c #0E0E0E",
"O  c #100D00",
"+  c #141101",
"@  c #15120A",
"#  c #1B1501",
"$  c #181709",
"%  c #1E1800",
"&  c #1C1909",
"*  c #131313",
"=  c #1B1A10",
"-  c #1B1B1B",
";  c #221D04",
":  c #2B2300",
">  c #3C2F00",
",  c #232323",
"<  c #2D2922",
"1  c #2C2C2C",
"2  c #332C21",
"3  c #35312C",
"4  c #323232",
"5  c #3C3C3C",
"6  c #433504",
"7  c #4E3B00",
"8  c #604801",
"9  c #795B01",
"0  c #75620C",
"q  c #7D6503",
"w  c #78623E",
"e  c #434343",
"r  c #4E4B46",
"t  c #4C4C4C",
"y  c #57534F",
"u  c #535353",
"i  c #5A5A5A",
"p  c #646464",
"a  c #6A6A6A",
"s  c #767676",
"d  c #7A7A7A",
"f  c #816600",
"g  c #907100",
"h  c #9B7500",
"j  c #997B02",
"k  c #936F34",
"l  c #9B763A",
"z  c #9C783D",
"x  c #A87E00",
"c  c #A27E42",
"v  c #B68A04",
"b  c #BE8F0C",
"n  c #A58046",
"m  c #AA874B",
"M  c #AD894F",
"N  c #B39154",
"B  c #B69358",
"V  c #B49F57",
"C  c #B49F58",
"Z  c #BE9B5B",
"A  c #B6A158",
"S  c #C59502",
"D  c #C3930B",
"F  c #C59804",
"G  c #CC9A01",
"H  c #CA9A0A",
"J  c #D09E02",
"K  c #D5A201",
"L  c #D3A209",
"P  c #D2A802",
"I  c #D9A501",
"U  c #DDAA01",
"Y  c #DCA908",
"T  c #E1AB00",
"R  c #E2B402",
"E  c #E5B708",
"W  c #E7B803",
"Q  c #EABA00",
"!  c #C09D5E",
"~  c #CBAA5B",
"^  c #DCB75A",
"/  c #CCA760",
"(  c #ECC401",
")  c #EAC519",
"_  c #F2C402",
"`  c #F3C900",
"'  c #F5CE1A",
"]  c #F4D200",
"[  c #F8D602",
"{  c #FCD901",
"}  c #DDC36D",
"|  c #E2C958",
" . c #ECD15D",
".. c #FBE346",
"X. c #FBED5A",
"o. c #FFF15B",
"O. c #828282",
"+. c #8B8B8B",
"@. c #929292",
"#. c #999691",
"$. c #9A9A9A",
"%. c #A3A3A3",
"&. c #ABABAB",
"*. c #B5B5B5",
"=. c #BDBAB5",
"-. c #BCBCBC",
";. c #EFE48E",
":. c #FBFA96",
">. c #C2C2C2",
",. c #CCCCCC",
"<. c #D0CDC8",
"1. c #D5D2CD",
"2. c #D3D3D3",
"3. c #DBD8D3",
"4. c #DBDBDB",
"5. c #E3E3E3",
"6. c #E9E9E9",
"7. c gray100",
"8. c None",
/* pixels */
"8.8.8.8.8.8.1 5 e e t t t t t t u t t t t e 8.8.8.8.8.8.8.8.8.8.",
"8.8.8., e e t t t e i i i i i i i i i u t e 1   8.8.8.8.8.8.8.8.",
"8.8.1 e t s *.>.,.2.2.2.2.2.,.*.*.*.&.&.-.&.+.+.O.  8.8.8.8.8.8.",
"8.  5 i >.,.2.,.,.2.2.2.2.>.*.*.&.-.2.>.*.*.,.6.-.@.  8.8.8.8.8.",
"8.4 e -.,.,.,.2.2.2.,.2.>.*.*.*.>.*.%.%.&.&.&.@.%.4.&.  8.8.8.8.",
"  4 +.,.,.,.,.,.,.,.,.>.*.*.*.-.%.&.$.O.O.u e @.%.O.2.&.  8.8.8.",
", 5 &.>.,.,.,.,.,.,.>.-.-.&.-.&.%.+.%.>.,.a , * s %.&.,.+.8.8.8.",
"1 5 *.,.>.,.>.>.-.&.%.%.%.%.-.%.@.@.&.*.&.t ,   * +.+.,.&.  8.8.",
"1 e -.>.>.>.>.*.u 4 4 4 1 %.-.@.5 1 1 1 1 , *     a @.>.*.  8.8.",
", e -.>.>.>.>.&.t 5 5 5 5 *.&.@., - * * * o   8.  u @.-.*.  8.8.",
"- e -.-.-.>.-.-.+.i u i p -.%.+.t t t e 1   8.8.8.5 @.&.-.  8.8.",
"- 5 *.-.-.-.-.-.*.*.*.*.&.-.%.@.*.-.%.i t 5 8.8.8.5 $.&.>.  8.8.",
"* 4 $.-.*.*.*.*.*.-.*.*.&.-.%.$.*.-.>.-.O.e 1 8.8.5 %.%.>.  8.8.",
"  , i *.-.*.*.-.*.-.-.-.*.-.%.%.*.-.-.-.-.u 4 8.8.5 &.&.-.  8.8.",
"  * 4 @.-.-.-.-.-.-.>.-.&.-.&.&.&.*.*.*.*.+.5 ,   1 *.&.>.    8.",
"8.  - 5 O.-.>.>.>.>.=.|  .^ / Z B M n z k k l c m N Z ~ } ;.A   ",
"8.8.  - 1 t a +.$.$.$.| ..' _ Q U J D b b D H L Y R _ { o.:.C   ",
"8.8.8.  - - - , , 1 3 | ..; q I Y J H F H H H Y Y E ( { X.:.C   ",
"8.1 1 1 1 1 - * * * 2 | ..X . X > h G F G J K K Y E ( { X.:.C   ",
"4 e t u t t u t u u u | ..> O .   X + 8 v J L I I W ` { o.:.C   ",
"1 i -.>.>.>.>.,.,.,.=.| ..' R f % X   . X 9 K K I E ( [ X.:.C   ",
"1 s ,.2.2.3.4.4.4.4.<.| ..' ( Q F 6       8 K I T Q ` { o.:.A   ",
"1 s 2.2.2.4.4.4.5.5.1.| ..) j : O     O % h K I U W ( { o.:.C   ",
"1 s 2.4.4.4.5.5.5.5.1.| ..X X   X X 7 x G K K U T W ` [ o.:.C   ",
"1 s 2.4.4.4.5.5.5.6.3.| ... + : g J G G J K I I T W ` [ X.:.A   ",
", i ,.2.2.4.4.4.5.5.1.| ..0 P Q U J J G G J K T T W ` { X.:.A   ",
"- , 5 e e e e e e t r | ..' _ Q U K G S G J J K I T ( ] X.:.V   ",
"  - - - - - - - - - < | ..' _ Q U I J G J S   O O O O + + :.V   ",
"8.    8.8.8.8.8.8.8.w | ..' _ Q T I G G J S   O X O O + @ :.V   ",
"8.8.8.8.8.8.8.8.8.8.w | ..' _ Q T I G F J J J K U T ( ] X.:.V   ",
"8.8.8.8.8.8.8.8.8.8.w | ..' _ Q U I G J J J K U U Q ` { o.:.C   ",
"8.8.8.8.8.8.8.8.8.8.  & & % + + + O O X X O O X O + + + $ & @   "
};
