/* XPM */
static char *sshstart_16[] = {
/* columns rows colors chars-per-pixel */
"16 16 103 2 ",
"   c #232323",
".  c #343434",
"X  c gray28",
"o  c #4C4C4C",
"O  c gray33",
"+  c #555555",
"@  c #565656",
"#  c gray34",
"$  c gray35",
"%  c #5A5A5A",
"&  c #5D5D5D",
"*  c #606060",
"=  c gray39",
"-  c #676767",
";  c #6A6A6A",
":  c #6C6C6C",
">  c gray44",
",  c gray46",
"<  c #767676",
"1  c #797979",
"2  c gray50",
"3  c #808080",
"4  c #818181",
"5  c gray51",
"6  c #848484",
"7  c #888888",
"8  c gray54",
"9  c #8B8B8B",
"0  c gray55",
"q  c #8E8E8E",
"w  c #909090",
"e  c #939393",
"r  c gray58",
"t  c #979797",
"y  c gray60",
"u  c #9B9B9B",
"i  c #A0A0A0",
"p  c gray64",
"a  c #A4A4A4",
"s  c #AEAEAE",
"d  c #B0B1AF",
"f  c #B2B2B2",
"g  c gray70",
"h  c #B7B7B7",
"j  c gray73",
"k  c #BCBCBC",
"l  c gray74",
"z  c gray",
"x  c #BEBFBE",
"c  c #C0C0C0",
"v  c #C1C1C1",
"b  c #C2C3C2",
"n  c gray78",
"m  c #C8C8C8",
"M  c gray79",
"N  c #CACACA",
"B  c #CBCBCB",
"V  c gray80",
"C  c #CECECE",
"Z  c gray81",
"A  c #D0D0D0",
"S  c gray82",
"D  c #D2D2D2",
"F  c LightGray",
"G  c #D5D6D5",
"H  c gray84",
"J  c #D8D8D8",
"K  c gray85",
"L  c #DADADA",
"P  c gray86",
"I  c gainsboro",
"U  c #DCDDDC",
"Y  c #DDDDDD",
"T  c gray87",
"R  c #DFDFDF",
"E  c gray88",
"W  c #E1E1E1",
"Q  c #E2E2E2",
"!  c gray89",
"~  c #E4E4E4",
"^  c gray90",
"/  c #E6E6E6",
"(  c #E7E7E7",
")  c gray91",
"_  c #E9E9E9",
"`  c #EAEAEA",
"'  c gray92",
"]  c #ECECEC",
"[  c gray93",
"{  c #EEEEEE",
"}  c #EFEFEF",
"|  c #EFF0EF",
" . c gray94",
".. c #F1F1F1",
"X. c gray95",
"o. c #F3F3F3",
"O. c gray97",
"+. c #F9F9F9",
"@. c #FBFBFB",
"#. c gray99",
"$. c #FDFDFD",
"%. c gray100",
"&. c None",
/* pixels */
"&.&.&.&.&.&.&.&.&.&.&.&.Y  .Q &.",
"&.&.&.&.&.&.&.&.&.&.&.S o.~ _ l ",
"&.&.&.&.&.&.&.&.&.&.&. .Q ~  .b ",
"&.&.&.&.&.&.&.&.&.Z ~ K Q  . .q ",
"&.&.&.&.&.&.&.&.b Q K Y ] ] a &.",
"&.&.&.&.&.&.&.m Y S K ] ] a &.&.",
"&.&.&.Z Y Y c f Z G _ _ p &.&.&.",
"&.l K Q ~ ~ ~ Y n ~ S r &.&.&.&.",
"&.B f M R ~ ( ( Z w 3 a w 1 &.&.",
"6 j # > K ~ Q ~ q l  .+.#.~ < &.",
"9 M &.l P Q ~ M 3 +.K 7 ~ #.S : ",
"< B J K Y Q _ s u #.M . X c ] - ",
"&.S K Y Q ( ] h 7 +.b   3 o._ * ",
"&.2 K Y Q ( ] Z = ( G M #.+.r % ",
"&.&.# b K G g o &.: S ] _ u % &.",
"&.&.&.&.&.&.&.&.&.&.# & % # &.&."
};
