/* XPM */
static char *sshstart-16[] = {
/* columns rows colors chars-per-pixel */
"16 16 165 2",
"   c #0A0800",
".  c gray5",
"X  c #100D00",
"o  c #110E00",
"O  c gray7",
"+  c #161616",
"@  c gray9",
"#  c #342701",
"$  c #342800",
"%  c #352A00",
"&  c #382A00",
"*  c #3E3000",
"=  c #202020",
"-  c gray13",
";  c #272727",
":  c #2C2C2C",
">  c #2D2D2D",
",  c #2F2F2F",
"<  c gray19",
"1  c #313131",
"2  c #323232",
"3  c gray20",
"4  c #343434",
"5  c gray21",
"6  c gray22",
"7  c #3C3C3C",
"8  c #3F3F3F",
"9  c #564100",
"0  c #584400",
"q  c #5B4500",
"w  c #5D4800",
"e  c #56401E",
"r  c #5F5000",
"t  c #675200",
"y  c #655500",
"u  c #745701",
"i  c #6C5126",
"p  c #715427",
"a  c #735E3C",
"s  c #7B6B16",
"d  c gray25",
"f  c #414141",
"g  c #434343",
"h  c #444444",
"j  c gray27",
"k  c gray28",
"l  c #484848",
"z  c gray29",
"x  c gray30",
"c  c #4E4E4E",
"v  c gray31",
"b  c #565656",
"n  c #736043",
"m  c #7A6749",
"M  c #646464",
"N  c DimGray",
"B  c #6D6D6D",
"V  c #727272",
"C  c #8E6B00",
"Z  c #897719",
"A  c #916D00",
"S  c #947000",
"D  c #9B7500",
"F  c #9B7700",
"G  c #96752D",
"H  c #A27C00",
"J  c #8F754A",
"K  c #827054",
"L  c #AB8900",
"P  c #AF9400",
"I  c #AD961F",
"U  c #A1823F",
"Y  c #B09920",
"T  c #B59037",
"R  c #BDA422",
"E  c #AA8B49",
"W  c #B79852",
"Q  c #A59478",
"!  c #AB997D",
"~  c #AC9B7F",
"^  c #B3B061",
"/  c #B5B262",
"(  c #B6B362",
")  c #C69800",
"_  c #C89604",
"`  c #CA9807",
"'  c #CE9B00",
"]  c #CF9C00",
"[  c #D29E00",
"{  c #CDA300",
"}  c #D6A109",
"|  c #DAA501",
" . c #DBA600",
".. c #D8A604",
"X. c #DBA900",
"o. c #E4AF05",
"O. c #E5B000",
"+. c #E5B003",
"@. c #C7AA5C",
"#. c #CAB05F",
"$. c #D1BE6C",
"%. c #F2C100",
"&. c #F6D100",
"*. c #F8D100",
"=. c #F8D103",
"-. c #F9D82D",
";. c #808080",
":. c #838383",
">. c #888888",
",. c #909090",
"<. c gray58",
"1. c #979797",
"2. c gray60",
"3. c #9A9A9A",
"4. c #9B9B9B",
"5. c gray62",
"6. c #9F9F9F",
"7. c #AFA798",
"8. c #A0A0A0",
"9. c gray63",
"0. c gray64",
"q. c #A4A4A4",
"w. c #A5A5A5",
"e. c gray65",
"r. c #A7A7A7",
"t. c gray66",
"y. c #A9A9A9",
"u. c #AAAAAA",
"i. c #ACACAC",
"p. c #AEAEAE",
"a. c gray69",
"s. c #B1B1B1",
"d. c #B2B2B2",
"f. c gray70",
"g. c #B4B4B4",
"h. c #B6B6B6",
"j. c #B7B7B7",
"k. c #B9B9B9",
"l. c gray73",
"z. c #BCBCBC",
"x. c gray74",
"c. c gray",
"v. c gray75",
"b. c #D3CB8C",
"n. c #FFFB8A",
"m. c #C0C0C0",
"M. c #C1C1C1",
"N. c gray76",
"B. c gray78",
"V. c #C8C8C8",
"C. c gray79",
"Z. c gray80",
"A. c #CECECE",
"S. c gray81",
"D. c #D0D0D0",
"F. c #D2D2D2",
"G. c LightGray",
"H. c #D7D7D7",
"J. c gray85",
"K. c #DDDDDD",
"L. c #DFDFDF",
"P. c #E1E1E1",
"I. c gray90",
"U. c gray100",
"Y. c None",
/* pixels */
"Y.3 g 8 g j z z z z 8 3 Y.Y.Y.Y.",
"Y.g 9.B.D.G.Z.c.u.h.l.f.3.Y.Y.Y.",
", w.Z.Z.Z.Z.c.u.f.3.>.,.w.u.Y.Y.",
"3 M.C.C.M.f.u.h.3.f.5.- >.u.5.Y.",
"5 M.M.c.j 5 V u.k , ; O B w.3.Y.",
", f.c.l.w.9.w.3.<.M g Y.V 9.9.Y.",
"+ 3.h.h.h.h.u.3.M.c.:.5 V u.9.Y.",
". x h.l.c.7.$.@.W E E G T #.b.p ",
"Y.+ 3 v M K R { ..` ` } o.=.n.i ",
"7 h h j j m s X $ u _ | +.&.n.i ",
"x B.Z.D.G.Q -.{ *   #  .+.=.n.i ",
"b D.H.K.P.! I $ X & C  .+.=.n.i ",
"x D.J.L.I.! Z t ) ' [ X.+.=.n.i ",
"- , , , 3 n -.%.X.] ] q w y ( i ",
"Y.Y.Y.Y.Y.J -.%.X.' ] 9 q w ^ i ",
"Y.Y.Y.Y.Y.a Y L F C S F H P ( e "
};
