/* XPM */
static char *sshstart___[] = {
/* columns rows colors chars-per-pixel */
"16 16 101 2",
"   c #232323",
".  c #343434",
"X  c #474747",
"o  c #4D4D4D",
"O  c #535353",
"+  c #565656",
"@  c #585858",
"#  c #5A5A5A",
"$  c #5B5B5B",
"%  c #5D5D5D",
"&  c #606060",
"*  c #626262",
"=  c #676767",
"-  c #6A6A6A",
";  c #6C6C6C",
":  c #6F6F6F",
">  c #757575",
",  c #767676",
"<  c #797979",
"1  c #7E7E7E",
"2  c #808080",
"3  c #818181",
"4  c #848484",
"5  c #888888",
"6  c #8B8B8B",
"7  c #8C8C8C",
"8  c #8F8F8F",
"9  c #909090",
"0  c #929292",
"q  c #959595",
"w  c #979797",
"e  c #989898",
"r  c #9A9A9A",
"t  c #A1A1A1",
"y  c #A2A2A2",
"u  c #A4A4A4",
"i  c #AEAEAE",
"p  c #AFB0AF",
"a  c #B2B2B2",
"s  c #B7B7B7",
"d  c #BABABA",
"f  c #BDBDBD",
"g  c #BEBEBE",
"h  c #BFBFBF",
"j  c #BFC0BF",
"k  c #C0C0C0",
"l  c #C2C2C2",
"z  c #C3C3C3",
"x  c #C7C7C7",
"c  c #C7C8C7",
"v  c #C8C8C8",
"b  c #C9C9C9",
"n  c #CACACA",
"m  c #CBCBCB",
"M  c #CCCCCC",
"N  c #CDCDCD",
"B  c #CECECE",
"V  c #CFCFCF",
"C  c #D0D0D0",
"Z  c #D1D1D1",
"A  c #D2D2D2",
"S  c #D3D3D3",
"D  c #D6D6D6",
"F  c #D7D7D7",
"G  c #D8D8D8",
"H  c #D9D9D9",
"J  c #DADADA",
"K  c #DBDBDB",
"L  c #DCDCDC",
"P  c #DCDDDC",
"I  c #DDDDDD",
"U  c #DEDEDE",
"Y  c #DFDFDF",
"T  c #E0E0E0",
"R  c #E1E1E1",
"E  c #E2E2E2",
"W  c #E3E3E3",
"Q  c #E4E4E4",
"!  c #E5E5E5",
"~  c #E6E6E6",
"^  c #E7E7E7",
"/  c #E8E8E8",
"(  c #E9E9E9",
")  c #EAEAEA",
"_  c #EBEBEB",
"`  c #ECECEC",
"'  c #EDEDED",
"]  c #EEEEEE",
"[  c #EFEFEF",
"{  c #EFF0EF",
"}  c #F0F0F0",
"|  c #F2F2F2",
" . c #F3F3F3",
".. c #F4F4F4",
"X. c #F7F7F7",
"o. c #F9F9F9",
"O. c #FBFBFB",
"+. c #FCFCFC",
"@. c #FDFDFD",
"#. c #FFFFFF",
"$. c None",
/* pixels */
"$.$.$.$.$.$.$.$.$.$.$.$.Y } E $.",
"$.$.$.$.$.$.$.$.$.$.$.C ..Q ( f ",
"$.$.$.$.$.$.$.$.$.$.$.{ E Q } k ",
"$.$.$.$.$.$.$.$.$.N Q K Y } } 9 ",
"$.$.$.$.$.$.$.$.z W F K ' } u $.",
"$.$.$.$.$.$.$.c K A J ` ' y $.$.",
"$.$.$.C I I k a C F ( ` y $.$.$.",
"$.f J E Q Q Q I c Q C q $.$.$.$.",
"$.M a v Y Q ( ( M 9 3 y 9 < $.$.",
"4 d @ : J Q Y Q 7 k { O.@.Q , $.",
"6 v $.f J E Q v 3 o.J 5 Q @.C ; ",
", N F J I E ( i r @.v . X f ' = ",
"$.C J I E / ` s 7 o.k   3 } ( & ",
"$.1 I I E Q ` N & ( F v @.o.w $ ",
"$.$.O k J F a o $.; C } ( e $ $.",
"$.$.$.$.$.$.$.$.$.$.+ $ $ + $.$."
};
