/* XPM */
static char *sshstart[] = {
/* columns rows colors chars-per-pixel */
"32 32 166 2",
"   c gray9",
".  c #1E1E1E",
"X  c gray16",
"o  c gray17",
"O  c #2F2F2F",
"+  c gray19",
"@  c gray20",
"#  c #343434",
"$  c #444444",
"%  c gray28",
"&  c gray29",
"*  c #4E4E4E",
"=  c gray31",
"-  c #515151",
";  c gray32",
":  c #535353",
">  c gray33",
",  c #555555",
"<  c #565656",
"1  c gray34",
"2  c gray35",
"3  c #5B5B5B",
"4  c gray36",
"5  c #5D5D5D",
"6  c gray37",
"7  c #5F5F5F",
"8  c #606060",
"9  c gray38",
"0  c gray39",
"q  c #646464",
"w  c #656565",
"e  c gray40",
"r  c #686868",
"t  c DimGray",
"y  c gray42",
"u  c #6D6D6D",
"i  c gray43",
"p  c #6F6F6F",
"a  c gray44",
"s  c #717171",
"d  c #727272",
"f  c #747474",
"g  c gray46",
"h  c #767676",
"j  c #7B7B7B",
"k  c gray49",
"l  c #7E7E7E",
"z  c #7F7F7F",
"x  c #808080",
"c  c #818181",
"v  c gray51",
"b  c #838383",
"n  c #848484",
"m  c #868785",
"M  c #868686",
"N  c gray53",
"B  c #8B8B8B",
"V  c gray55",
"C  c #909090",
"Z  c gray57",
"A  c #929292",
"S  c gray58",
"D  c #979797",
"F  c gray60",
"G  c #9B9B9B",
"H  c gray61",
"J  c #9C9D9C",
"K  c #9D9D9D",
"L  c gray62",
"P  c #A0A0A0",
"I  c #A2A2A2",
"U  c #A5A5A5",
"Y  c #A7A7A7",
"T  c #A9A9A9",
"R  c #AAAAAA",
"E  c gray67",
"W  c #AFAFAF",
"Q  c #B0B0AF",
"!  c #B2B2B2",
"~  c gray70",
"^  c #B4B4B4",
"/  c gray71",
"(  c #B6B7B6",
")  c #B7B8B6",
"_  c gray72",
"`  c #BABBBA",
"'  c #BBBBBB",
"]  c gray74",
"[  c #BDBEBD",
"{  c gray",
"}  c #C0C0C0",
"|  c #C0C1C0",
" . c gray76",
".. c #C3C3C3",
"X. c gray77",
"o. c #C5C5C5",
"O. c #C6C6C6",
"+. c gray78",
"@. c #C8C8C8",
"#. c #C8C9C8",
"$. c gray79",
"%. c #CACACA",
"&. c #CBCBCB",
"*. c gray80",
"=. c #CDCDCD",
"-. c #CECECE",
";. c gray81",
":. c #D0D0D0",
">. c gray82",
",. c #D1D2D1",
"<. c #D2D2D2",
"1. c LightGray",
"2. c gray83",
"3. c #D5D5D5",
"4. c #D5D6D5",
"5. c gray84",
"6. c #D6D7D6",
"7. c #D7D7D7",
"8. c #D7D8D7",
"9. c #D8D8D8",
"0. c gray85",
"q. c #DADADA",
"w. c gray86",
"e. c #DBDCDB",
"r. c gainsboro",
"t. c #DCDDDC",
"y. c #DDDDDD",
"u. c #DDDEDD",
"i. c gray87",
"p. c #DEDFDE",
"a. c #DFDFDF",
"s. c gray88",
"d. c #E1E1E1",
"f. c #E1E2E1",
"g. c #E2E2E2",
"h. c gray89",
"j. c #E4E4E4",
"k. c gray90",
"l. c #E6E6E6",
"z. c #E7E7E7",
"x. c gray91",
"c. c #E9E9E9",
"v. c #EAEAEA",
"b. c gray92",
"n. c #ECECEC",
"m. c gray93",
"M. c #EDEEED",
"N. c #EEEEEE",
"B. c #EFEFEF",
"V. c gray94",
"C. c #F1F1F1",
"Z. c #F1F2F1",
"A. c gray95",
"S. c #F3F3F3",
"D. c #F4F4F4",
"F. c #F4F5F4",
"G. c gray96",
"H. c #F6F6F6",
"J. c gray97",
"K. c #F8F8F8",
"L. c gray98",
"P. c gray99",
"I. c #FDFDFD",
"U. c #FEFEFE",
"Y. c gray100",
"T. c None",
/* pixels */
"T.T.T.T.T.T.T.T.T.T.T.T.T.T.T.T.T.T.T.T.T.T.T.T.T.T.M.F.9.c.T.T.",
"T.T.T.T.T.T.T.T.T.T.T.T.T.T.T.T.T.T.T.T.T.T.T.T.5.A.L.-.S.I.i.T.",
"T.T.T.T.T.T.T.T.T.T.T.T.T.T.T.T.T.T.T.T.T.T.T.5.A.F.-.S.L.j.h.T.",
"T.T.T.T.T.T.T.T.T.T.T.T.T.T.T.T.T.T.T.T.T.T.-.F.A.%.A.F.h.M.c.T.",
"T.T.T.T.T.T.T.T.T.T.T.T.T.T.T.T.T.T.T.T.T.) F.A.@.M.S.a.c.F.M.T.",
"T.T.T.T.T.T.T.T.T.T.T.T.T.T.T.T.T.T.T.T.T.5.M.o.n.A.i.c.A.F.M.T.",
"T.T.T.T.T.T.T.T.T.T.T.T.T.T.T.T.T.T.T.T.h.c. .n.M.9.c.A.S.F.i.T.",
"T.T.T.T.T.T.T.T.T.T.T.T.T.T.T.T.T.T.&.A.l.} c.n.0.c.A.S.F.M.b T.",
"T.T.T.T.T.T.T.T.T.T.T.T.T.T.T.T.5.@.M.j.[ c.c.5.l.V.V.A.M.m T.T.",
"T.T.T.T.T.T.T.T.T.T.T.T.T.T.T.T. .A.h.[ l.z.3.j.M.V.A.n.n T.T.T.",
"T.T.T.T.T.T.T.T.T.T.T.T.T.T.T.T.9.i._ j.j.1.j.M.V.V.n.n T.T.T.T.",
"T.T.T.T.T.T.T.T.T.T.T.T.T.) [ j.t._ h.h.-.h.n.M.M.c.n T.T.T.T.T.",
"T.T.T.T.T.T.i.h.h.h.i.h.9.m l.5./ h.i.-.h.c.M.n.c.b T.T.T.T.T.T.",
"T.T.T.T.T.h.9.5.9.i.i.i.9.9.H H i.t.*.i.c.n.M.c.b T.T.T.T.T.T.T.",
"T.T.T.9.i.1.i.h.l.l.h.h.c.h.i.5.Q  .i.c.c.c.l.b T.T.T.T.T.T.T.T.",
"T.T.T.5.1.h.h.h.h.h.l.l.c.l.c.h.%.i.l.l. .T z k k b T.T.T.T.T.T.",
"T.T.1.1.1.5.5.9.a.j.j.l.j.c.l.c.j.5.-.V g d g k g a g k T.T.T.T.",
"T.T.-.-.T k T -.0.a.j.l.c.l.g.c.l.T f y H i.l.c.h.0.D y g T.T.T.",
"T.H -.! u ; 0 T 3.a.j.j.j.a.a.z.%.d d 2.V.F.F.K.F.A.z.o.p d T.T.",
"T.T %.I T.T.T.@ 3.a.j.j.a.a.j.j.j w 5.A.L.9.J.I.I.I.F.n.o.0 a T.",
"T.! %._ T.T.T.T.3.a.g.r.a.j.c.! w P A.L.I./ m 1.I.I.I.F.l.A w T.",
"T.W %.-.i.T.7.5.5.h.r.a.a.c.n.S 5 h.L.I.I.T y 3 D F.I.I.V.:.5 y ",
"T.I o.1.-.r.5.0.a.r.a.j.c.c.M.f r h.F.I.I.I 1 % & w :.I.F.a.w 0 ",
"T.k %.-.0.r.r.a.r.h.a.c.c.n.c.7 g j.K.I.I.b X . O % 7 &.F.h.a 5 ",
"T.T.9.%.9.i.i.9.i.a.l.c.c.n.n.a w h.K.I.I.j .   X 1 -.I.F.a.0 5 ",
"T.T.H 5.1.9.h.i.i.j.c.c.n.n.n.B 1 9.A.I.I.n # + k A.I.I.A.3.; 5 ",
"T.T.T.1.i.5.9.i.h.l.c.c.c.c.M.E ; F c.F.I.A 3  .I.I.I.F.l.A > T.",
"T.T.T.; 1.l.i.i.i.h.j.l.c.A.h.D 1 > &.M.L.o.A.I.I.I.L.c. .; 1 T.",
"T.T.T.T.T.I 9.l.c.M.A.M.c.o.m T.T.; w %.c.A.F.F.F.A.l.o.0 > T.T.",
"T.T.T.T.T.T.0 A U / ^ H b 5 T.T.T.1 ; ; F 9.h.h.h.9.A = ; T.T.T.",
"T.T.T.T.T.T.T.T.T.T.T.T.T.T.T.T.T.T.T.1 = = 5 u 3 = = 1 T.T.T.T.",
"T.T.T.T.T.T.T.T.T.T.T.T.T.T.T.T.T.T.T.T.T.; ; ; ; ; T.T.T.T.T.T."
};
