/* XPM */
static char *sshstart[] = {
/* columns rows colors chars-per-pixel */
"32 32 173 2",
"   c #0B0B0B",
".  c #181818",
"X  c #232323",
"o  c gray14",
"O  c #252525",
"+  c gray15",
"@  c #313131",
"#  c #323232",
"$  c gray22",
"%  c #393939",
"&  c gray27",
"*  c gray29",
"=  c #4B4B4B",
"-  c #4E4E4E",
";  c gray31",
":  c #505050",
">  c #515151",
",  c gray32",
"<  c #535353",
"1  c gray33",
"2  c #555555",
"3  c #565656",
"4  c #585858",
"5  c gray36",
"6  c #5D5D5D",
"7  c gray37",
"8  c #5F5F5F",
"9  c gray38",
"0  c #626262",
"q  c gray39",
"w  c #646464",
"e  c #656565",
"r  c gray40",
"t  c #676767",
"y  c #686868",
"u  c gray42",
"i  c #6F6F6F",
"p  c gray44",
"a  c #717171",
"s  c #727272",
"d  c gray45",
"f  c #747474",
"g  c gray46",
"h  c gray48",
"j  c #7B7B7B",
"k  c #7C7C7C",
"l  c gray49",
"z  c #7E7E7E",
"x  c #808080",
"c  c #818181",
"v  c gray51",
"b  c #838383",
"n  c #848484",
"m  c #848584",
"M  c gray52",
"N  c #868686",
"B  c gray53",
"V  c #888888",
"C  c gray54",
"Z  c #8B8B8B",
"A  c #909090",
"S  c #929292",
"D  c #939393",
"F  c #979797",
"G  c gray60",
"H  c #9A9A9A",
"J  c gray61",
"K  c #9D9D9D",
"L  c gray62",
"P  c #9F9F9F",
"I  c #A0A0A0",
"U  c #A2A2A2",
"Y  c gray65",
"T  c #A9A9A9",
"R  c #AAAAAA",
"E  c gray67",
"W  c #ACACAC",
"Q  c #AFB0AF",
"!  c #B1B1B1",
"~  c #B2B2B2",
"^  c gray70",
"/  c gray71",
"(  c #B5B6B5",
")  c #B6B6B6",
"_  c #B6B7B6",
"`  c gray72",
"'  c #B9B9B9",
"]  c #B9BAB9",
"[  c #BBBBBB",
"{  c #BCBDBC",
"}  c gray",
"|  c #BEBFBE",
" . c gray75",
".. c #C0C0C0",
"X. c #C0C1C0",
"o. c #C1C1C1",
"O. c gray76",
"+. c gray77",
"@. c #C5C5C5",
"#. c #C6C6C6",
"$. c gray78",
"%. c #C8C8C8",
"&. c gray79",
"*. c #CACACA",
"=. c #CBCBCB",
"-. c #CBCCCB",
";. c gray80",
":. c #CDCDCD",
">. c #CDCECD",
",. c #CECECE",
"<. c gray81",
"1. c #CFD0CF",
"2. c #D0D0D0",
"3. c gray82",
"4. c #D2D2D2",
"5. c LightGray",
"6. c gray83",
"7. c #D4D5D4",
"8. c #D5D5D5",
"9. c #D5D6D5",
"0. c gray84",
"q. c #D7D7D7",
"w. c #D7D8D7",
"e. c #D8D8D8",
"r. c gray85",
"t. c #DADADA",
"y. c gray86",
"u. c gainsboro",
"i. c #DCDDDC",
"p. c #DDDDDD",
"a. c #DDDEDD",
"s. c gray87",
"d. c #DEDFDE",
"f. c #DFDFDF",
"g. c gray88",
"h. c #E0E1E0",
"j. c #E1E1E1",
"k. c #E2E2E2",
"l. c gray89",
"z. c #E3E4E3",
"x. c #E4E4E4",
"c. c gray90",
"v. c #E6E6E6",
"b. c #E7E7E7",
"n. c #E7E8E7",
"m. c gray91",
"M. c #E9E9E9",
"N. c #EAEAEA",
"B. c gray92",
"V. c #EBECEB",
"C. c #ECECEC",
"Z. c gray93",
"A. c #EEEEEE",
"S. c #EEEFEE",
"D. c #EFEFEF",
"F. c gray94",
"G. c #F1F1F1",
"H. c gray95",
"J. c #F2F3F2",
"K. c #F3F3F3",
"L. c #F4F4F4",
"P. c gray96",
"I. c #F6F7F6",
"U. c gray97",
"Y. c #F8F8F8",
"T. c #F9F9F9",
"R. c gray98",
"E. c #FBFBFB",
"W. c gray99",
"Q. c #FDFDFD",
"!. c #FEFEFE",
"~. c gray100",
"^. c None",
/* pixels */
"^.^.^.^.^.^.^.^.^.^.^.^.^.^.^.^.^.^.^.^.^.^.^.^.^.^.m.F.r.m.^.^.",
"^.^.^.^.^.^.^.^.^.^.^.^.^.^.^.^.^.^.^.^.^.^.^.^.q.J.Y.,.P.W.s.^.",
"^.^.^.^.^.^.^.^.^.^.^.^.^.^.^.^.^.^.^.^.^.^.^.q.J.P.,.J.T.c.k.^.",
"^.^.^.^.^.^.^.^.^.^.^.^.^.^.^.^.^.^.^.^.^.^.4.P.J.&.J.P.k.Z.m.^.",
"^.^.^.^.^.^.^.^.^.^.^.^.^.^.^.^.^.^.^.^.^.` P.J.$.Z.K.f.m.P.m.^.",
"^.^.^.^.^.^.^.^.^.^.^.^.^.^.^.^.^.^.^.^.^.r.Z.#.Z.J.s.m.P.J.Z.^.",
"^.^.^.^.^.^.^.^.^.^.^.^.^.^.^.^.^.^.^.^.k.m.o.m.Z.r.c.J.K.P.s.^.",
"^.^.^.^.^.^.^.^.^.^.^.^.^.^.^.^.^.^.-.J.m.o.m.Z.e.c.J.J.K.Z.m ^.",
"^.^.^.^.^.^.^.^.^.^.^.^.^.^.^.^.q.#.D.z.| m.m.q.c.F.J.J.Z.V ^.^.",
"^.^.^.^.^.^.^.^.^.^.^.^.^.^.^.^.| J.k.| c.c.6.x.Z.F.J.m.n ^.^.^.",
"^.^.^.^.^.^.^.^.^.^.^.^.^.^.^.^.s.s.` c.c.4.x.Z.F.F.Z.n ^.^.^.^.",
"^.^.^.^.^.^.^.^.^.^.^.^.^._ | z.s._ k.k.,.x.Z.Z.F.m.n ^.^.^.^.^.",
"^.^.^.^.^.^.s.k.k.k.s.s.r.m c.q._ k.s.,.k.Z.Z.Z.m.n ^.^.^.^.^.^.",
"^.^.^.^.^.k.q.q.r.k.s.s.r.r.K K i.r.-.g.m.m.Z.m.b ^.^.^.^.^.^.^.",
"^.^.^.q.s.4.s.k.k.c.c.c.c.c.s.r.Q o.s.m.m.Z.c.b ^.^.^.^.^.^.^.^.",
"^.^.^.q.4.k.k.k.k.k.k.c.m.c.m.k.-.k.c.c.| T b z z b ^.^.^.^.^.^.",
"^.^.4.,.4.q.q.r.f.k.k.c.c.m.c.m.k.q.&.Z f i g z f i g k ^.^.^.^.",
"^.^.,.,.R j I &.r.f.c.x.m.c.x.m.c.R d u F #.4.q.4.#.A u g ^.^.^.",
"^.K ,.^ e = 4 K 4.k.k.c.c.f.f.c.&.d d | s.m.Z.J.F.Z.k...i d ^.^.",
"^.U &.G ^.^.^.@ 4.s.k.x.s.f.x.k.z e o.c.J.4.K.Q.W.T.K.m.+.q i ^.",
"^.^ &.` ^.^.^.^.6.f.x.u.s.k.m.^ q G c.J.T._ S q.Q.Q.Q.T.m.G e ^.",
"^.W &.,.s.^.q.q.e.k.u.f.f.m.Z.D 6 &.Z.T.Q.^ g e G P.Q.Q.J.r.5 u ",
"^.K #.,.,.u.q.q.f.u.f.x.m.m.Z.f e &.Z.Q.Q.R e > = q ,.Q.T.m.e q ",
"^.j &.4.r.r.u.k.r.f.k.m.m.Z.m.6 g 4.Z.Q.Q.Z % + + $ > &.Q.Z.g 6 ",
"^.^.q.&.r.r.s.r.s.f.c.m.m.Z.Z.i e 4.Z.W.Q.b o   . & &.Q.Q.Z.e 6 ",
"^.^.G q.4.r.s.s.s.c.m.m.m.Z.Z.Z < $.Z.W.Q.m @ o d Z.Q.Q.T.c.> 6 ",
"^.^.^.4.k.4.r.k.k.c.m.m.m.Z.Z.R > S k.P.Q.S 1 | Q.Q.Q.Q.P.U 1 ^.",
"^.^.^.1 q.c.k.r.s.k.x.c.m.K.k.G 1 < $.m.Y.#.J.Q.Q.Q.Q.T.r.> 1 ^.",
"^.^.^.^.^.U k.c.m.J.Z.Z.m.#.V ^.^.< e ;.Z.J.W.Q.Q.Q.P.r.e 1 ^.^.",
"^.^.^.^.^.^.e G W ` _ P n 6 ^.^.^.4 > > K k.m.Z.Z.m.U > 1 ^.^.^.",
"^.^.^.^.^.^.^.^.^.^.^.^.^.^.^.^.^.^.^.1 ; ; q g q ; ; 1 ^.^.^.^.",
"^.^.^.^.^.^.^.^.^.^.^.^.^.^.^.^.^.^.^.^.^.1 > > > 1 ^.^.^.^.^.^."
};
